<?xml version="1.0" encoding="UTF-8" standalone="no"?>
<!-- Created with Inkscape (http://www.inkscape.org/) -->

<svg
   version="1.1"
   id="svg2"
   width="2666.6667"
   height="2666.6667"
   viewBox="0 0 2666.6667 2666.6667"
   sodipodi:docname="files.ai"
   xmlns:inkscape="http://www.inkscape.org/namespaces/inkscape"
   xmlns:sodipodi="http://sodipodi.sourceforge.net/DTD/sodipodi-0.dtd"
   xmlns="http://www.w3.org/2000/svg"
   xmlns:svg="http://www.w3.org/2000/svg">
  <defs
     id="defs6">
    <clipPath
       clipPathUnits="userSpaceOnUse"
       id="clipPath16">
      <path
         d="M 0,2000 H 2000 V 0 H 0 Z"
         id="path14" />
    </clipPath>
  </defs>
  <sodipodi:namedview
     id="namedview4"
     pagecolor="#ffffff"
     bordercolor="#000000"
     borderopacity="0.25"
     inkscape:showpageshadow="2"
     inkscape:pageopacity="0.0"
     inkscape:pagecheckerboard="0"
     inkscape:deskcolor="#d1d1d1" />
  <g
     id="g8"
     inkscape:groupmode="layer"
     inkscape:label="files"
     transform="matrix(1.3333333,0,0,-1.3333333,0,2666.6667)">
    <g
       id="g10">
      <g
         id="g12"
         clip-path="url(#clipPath16)">
        <g
           id="g18"
           transform="translate(898.3584,945.4878)">
          <path
             d="m 0,0 c -3.03,-4.69 -6.89,-7.3 -11.57,-7.85 -5.52,-0.83 -10.54,0.68 -15.09,4.54 -4.55,3.86 -7.37,9.1 -8.47,15.71 -1.11,5.51 -0.62,10.6 1.44,15.29 2.07,4.69 5.03,7.86 8.89,9.51 3.029,1.38 6,1.24 8.89,-0.41 2.889,-1.66 4.61,-3.59 5.17,-5.79 -1.66,-1.65 -2.21,-3.72 -1.66,-6.2 0.27,-3.04 2.129,-5.31 5.58,-6.82 C -3.38,16.46 0.27,15.84 4.14,16.12 4.41,10.06 3.03,4.68 0,0 M 45.06,31.41 C 43.11,30.63 40.65,29.72 37.68,28.67 36.44,28.23 35.11,27.77 33.69,27.28 28.87,25.63 23.15,24.8 16.54,24.8 l -0.83,2.89 C 14.33,31 12.4,33.34 9.92,34.72 7.44,36.1 4.82,36.79 2.07,36.79 H 1.24 c -3.03,0 -5.78,-0.83 -8.261,-2.48 0,2.75 -0.699,5.23 -2.069,7.44 -2.21,3.03 -5.72,5.23 -10.54,6.61 -4.83,1.38 -9.58,1.38 -14.26,0 -5.24,-1.65 -9.79,-4.34 -13.64,-8.06 -3.86,-3.72 -6.89,-7.92 -9.1,-12.61 -2.2,-4.69 -3.44,-9.5 -3.72,-14.46 -0.27,-4.96 0.42,-9.65 2.07,-14.06 1.65,-4.41 4.2,-8.2 7.65,-11.36 3.44,-3.18 7.37,-5.52 11.78,-7.03 4.4,-1.52 9.23,-2.21 14.47,-2.07 5.23,0.14 10.33,1.17 15.29,3.1 7.99,3.03 14.319,7.71 19.01,14.06 4.69,6.33 7.17,13.08 7.44,20.25 5.51,0 10.4,0.68 14.68,2.07 0.77,0.24 1.5,0.49 2.189,0.73 3.161,1.08 5.531,2.08 7.111,2.99 3.57,1.92 6.05,4.34 7.44,7.23 1.37,2.89 0.13,3.65 -3.72,2.27"
             style="fill:#662d91;fill-opacity:1;fill-rule:nonzero;stroke:none"
             id="path20" />
        </g>
        <g
           id="g22"
           transform="translate(992.1885,945.4878)">
          <path
             d="m 0,0 c -3.04,-4.69 -6.89,-7.3 -11.58,-7.85 -5.51,-0.83 -10.54,0.68 -15.08,4.54 -4.55,3.86 -7.38,9.1 -8.48,15.71 -1.1,5.51 -0.62,10.6 1.45,15.29 2.07,4.69 5.02,7.86 8.89,9.51 3.029,1.38 5.989,1.24 8.88,-0.41 2.899,-1.66 4.609,-3.59 5.17,-5.79 -1.65,-1.65 -2.21,-3.72 -1.65,-6.2 0.27,-3.04 2.129,-5.31 5.58,-6.82 C -3.38,16.46 0.27,15.84 4.13,16.12 4.399,10.06 3.03,4.68 0,0 M 46.479,31.85 C 46.05,31.75 45.58,31.6 45.05,31.41 42.29,30.31 38.5,28.93 33.689,27.28 28.86,25.63 23.14,24.8 16.53,24.8 L 15.7,27.69 C 14.32,31 12.399,33.34 9.92,34.72 7.439,36.1 4.82,36.79 2.06,36.79 H 1.24 c -3.04,0 -5.79,-0.83 -8.27,-2.48 0,2.75 -0.69,5.23 -2.071,7.44 -2.21,3.03 -5.719,5.23 -10.539,6.61 -4.82,1.38 -9.57,1.38 -14.26,0 -5.23,-1.65 -9.78,-4.34 -13.64,-8.06 -3.59,-3.46 -6.46,-7.33 -8.61,-11.63 -0.17,-0.32 -0.33,-0.65 -0.48,-0.98 -1.36,-2.88 -2.35,-5.8 -2.971,-8.77 -0.399,-1.88 -0.639,-3.77 -0.75,-5.69 -0.269,-4.96 0.411,-9.65 2.071,-14.06 1.65,-4.41 4.19,-8.2 7.64,-11.36 3.44,-3.18 7.369,-5.52 11.78,-7.03 4.41,-1.52 9.23,-2.21 14.47,-2.07 5.23,0.14 10.329,1.17 15.289,3.1 7.991,3.03 14.33,7.71 19.021,14.06 4.68,6.33 7.16,13.08 7.44,20.25 5.51,0 10.4,0.68 14.67,2.07 1.89,0.6 3.54,1.18 4.97,1.74 1.8,0.7 3.25,1.36 4.33,1.98 3.58,1.92 6.06,4.34 7.44,7.23 1.19,2.5 0.43,3.4 -2.291,2.71"
             style="fill:#662d91;fill-opacity:1;fill-rule:nonzero;stroke:none"
             id="path24" />
        </g>
        <g
           id="g26"
           transform="translate(1153.5879,1145.3379)">
          <path
             d="m 0,0 c -1.51,10.34 -6.539,15.5 -15.079,15.5 -7.171,0 -13.79,-2.76 -19.841,-8.26 -6.069,-5.52 -11.51,-12.96 -16.33,-22.33 -4.819,-9.37 -9.09,-20.18 -12.81,-32.44 -3.719,-12.27 -6.69,-25.01 -8.889,-38.24 -0.261,-1.54 -0.5,-3.07 -0.731,-4.61 5.641,0.37 11.3,1.02 16.981,1.96 0.639,10.01 1.63,19.51 2.97,28.49 2.07,13.91 4.889,25.69 8.469,35.34 3.58,9.64 7.861,15.15 12.821,16.53 4.4,1.1 7.5,-0.41 9.299,-4.54 1.79,-4.14 2.54,-9.93 2.271,-17.37 -0.28,-7.44 -1.521,-16.19 -3.721,-26.24 -1.84,-8.38 -4,-17.03 -6.51,-25.98 5.571,1.79 11.13,3.88 16.67,6.27 0.241,0.1 0.481,0.21 0.72,0.32 4.381,12.48 7.78,24.04 10.2,34.68 C 0.351,-23.97 1.521,-10.33 0,0 m -88.239,-204.6 c -4.96,-4.28 -9.511,-5.73 -13.651,-4.34 -2.75,0.82 -4.339,3.3 -4.75,7.44 -0.41,4.13 0.481,9.36 2.691,15.7 2.479,6.34 5.779,10.68 9.92,13.02 4.13,2.34 8.12,2.83 11.99,1.45 2.75,-1.38 5.09,-3.04 7.019,-4.96 l 1.661,-9.09 c -4.96,-8.55 -9.92,-14.95 -14.88,-19.22 m 81.42,21.9 c -1.96,0.86 -3.601,-0.52 -4.91,-4.15 -0.161,-0.44 -0.31,-0.92 -0.46,-1.43 -2.21,-6.61 -5.311,-11.92 -9.3,-15.91 -4,-4 -7.92,-5.86 -11.781,-5.58 -5.519,0.55 -9.919,4.89 -13.23,13.02 -3.3,8.12 -5.93,18.53 -7.85,31.21 12.401,22.87 23,45.12 31.83,66.75 1.27,3.11 2.481,6.17 3.64,9.18 0.67,1.71 1.311,3.4 1.941,5.07 -5.481,-2.18 -10.981,-4.07 -16.481,-5.7 -0.47,-1.57 -0.949,-3.15 -1.439,-4.73 -2.62,-8.49 -5.54,-17.06 -8.741,-25.72 -4.139,-11.16 -8.269,-21.43 -12.4,-30.8 -1.39,14.33 -1.859,29.69 -1.449,46.09 0.04,1.85 0.099,3.68 0.17,5.49 0.05,1.46 0.109,2.9 0.179,4.34 -5.879,-0.93 -11.75,-1.55 -17.589,-1.88 -0.191,-1.45 -0.38,-2.89 -0.55,-4.34 -0.971,-7.93 -1.641,-15.89 -2.05,-23.86 -0.69,-13.37 -0.49,-25.98 0.619,-37.83 -3.309,2.21 -6.89,3.65 -10.75,4.34 -3.859,0.69 -7.85,0.48 -11.979,-0.62 -4.14,-1.1 -8.071,-2.89 -11.79,-5.37 -1.3,-0.87 -2.55,-1.82 -3.731,-2.87 -2.199,-1.91 -4.189,-4.13 -5.979,-6.64 -1.321,-1.73 -2.491,-3.5 -3.5,-5.28 -3.701,-6.45 -5.491,-13.22 -5.39,-20.34 0.149,-9.1 3.649,-15.85 10.539,-20.26 4.961,-3.3 9.921,-4.41 14.881,-3.3 4.97,1.09 9.649,3.23 14.059,6.4 4.401,3.17 8.271,6.89 11.571,11.16 3.309,4.27 6.059,8.06 8.269,11.37 2.75,-8.55 6.41,-15.44 10.95,-20.67 4.55,-5.24 10.13,-7.85 16.741,-7.85 5.79,0 10.889,1.24 15.3,3.72 4.4,2.48 8.19,5.51 11.36,9.09 3.17,3.58 5.72,7.24 7.649,10.96 0.071,0.14 0.151,0.28 0.21,0.42 1.811,3.54 2.981,6.5 3.51,8.88 0.83,4.13 0.141,6.67 -2.069,7.64"
             style="fill:#662d91;fill-opacity:1;fill-rule:nonzero;stroke:none"
             id="path28" />
        </g>
        <g
           id="g30"
           transform="translate(1216.6279,1156.708)">
          <path
             d="m 0,0 c -2.479,6.88 -6.609,10.33 -12.399,10.33 -7.72,0 -14.951,-3.51 -21.701,-10.54 -6.759,-7.02 -12.889,-16.26 -18.4,-27.69 -5.51,-11.44 -10.189,-24.46 -14.05,-39.06 -1.5,-5.7 -2.88,-11.44 -4.109,-17.24 5.97,2.84 11.8,5.97 17.46,9.37 0.159,1.18 0.33,2.36 0.5,3.53 2.059,13.91 4.889,25.62 8.47,35.13 3.58,9.51 7.849,14.81 12.809,15.91 4.691,1.1 8.07,-0.96 10.13,-6.2 2.07,-5.23 3.101,-12.33 3.101,-21.28 0,-1.04 -0.01,-2.09 -0.04,-3.15 5.969,4.19 12.009,8.37 18.169,12.38 0.81,0.53 1.63,1.06 2.451,1.58 0.349,3.47 0.589,6.82 0.71,10.06 C 3.511,-15.85 2.48,-6.89 0,0 m -18.71,-59.8 c -0.13,-1.52 -0.279,-3.06 -0.449,-4.63 -0.471,-4.3 -1.111,-8.8 -1.92,-13.49 -1.931,-11.16 -4.62,-22.18 -8.061,-33.06 -3.45,-10.89 -7.439,-20.95 -11.99,-30.18 -4.55,-9.23 -9.439,-16.19 -14.67,-20.87 -1.109,14.32 -1.38,29.55 -0.83,45.67 0.33,9.81 0.95,19.22 1.851,28.21 0.149,1.54 0.309,3.07 0.479,4.58 -5.87,-3.33 -11.889,-6.38 -18.05,-9.12 -0.29,-1.56 -0.58,-3.12 -0.849,-4.68 -0.841,-4.78 -1.58,-9.59 -2.24,-14.44 -2.061,-15.29 -3.101,-30.25 -3.101,-44.85 0,-14.61 1.11,-27.69 3.311,-39.27 0.15,-0.77 0.299,-1.54 0.459,-2.29 0.951,-4.48 2.1,-8.61 3.47,-12.37 1.821,-5.07 4.03,-9.48 6.611,-13.24 4.82,-7.02 11.089,-10.68 18.809,-10.95 5.78,0 10.95,1.239 15.5,3.72 4.551,2.48 8.401,5.51 11.57,9.09 1.67,1.89 3.151,3.8 4.441,5.73 1.149,1.73 2.149,3.469 3,5.23 1.79,3.719 2.96,6.82 3.519,9.3 0.821,4.4 0.201,7.16 -1.86,8.26 -2.069,1.1 -3.93,-0.97 -5.58,-6.2 -0.05,-0.16 -0.1,-0.31 -0.159,-0.46 -2.2,-6.4 -5.24,-11.62 -9.141,-15.661 -4,-4.129 -7.93,-5.929 -11.79,-5.369 -4.68,0.55 -8.609,5.369 -11.779,14.47 -3.17,9.09 -5.441,20.39 -6.82,33.89 l 2.479,2.48 c 7.44,7.16 14.471,16.6 21.08,28.31 6.62,11.71 12.41,24.25 17.37,37.62 4.96,13.36 8.95,26.87 11.981,40.51 1,4.48 1.849,8.82 2.559,13.02 0.281,1.63 0.54,3.24 0.771,4.83 -6.721,-4.46 -13.351,-9.11 -19.971,-13.79"
             style="fill:#662d91;fill-opacity:1;fill-rule:nonzero;stroke:none"
             id="path32" />
        </g>
        <g
           id="g34"
           transform="translate(1220.7588,974.8379)">
          <path
             d="M 0,0 C 0.819,5.51 2.75,8.95 5.779,10.33 8.54,11.43 10.81,11.09 12.6,9.3 14.39,7.5 15.29,4.96 15.29,1.65 15.29,-1.66 14.189,-5.1 11.979,-8.68 9.779,-12.27 6.06,-15.3 0.819,-17.78 -0.561,-11.44 -0.83,-5.52 0,0 m 54.149,-13.85 c -2.309,0.38 -4.03,-0.73 -5.129,-3.32 -0.09,-0.19 -0.17,-0.4 -0.25,-0.61 -2.21,-6.06 -4.89,-11.23 -8.06,-15.5 -3.17,-4.27 -6.61,-7.3 -10.33,-9.09 -3.721,-1.8 -7.511,-2.21 -11.37,-1.24 -3.861,0.96 -7.441,3.78 -10.75,8.47 -1.38,1.38 -2.481,2.96 -3.3,4.76 -0.83,1.79 -1.66,3.78 -2.481,5.99 6.061,1.1 11.5,3.51 16.331,7.23 4.809,3.72 8.469,7.86 10.95,12.4 2.479,4.55 3.649,9.1 3.51,13.64 -0.14,4.55 -2,8.34 -5.581,11.37 -2.759,2.2 -5.99,3.37 -9.71,3.51 C 14.26,23.9 10.47,23.14 6.609,21.49 2.75,19.84 -1.04,17.36 -4.761,14.05 -8.48,10.74 -11.58,6.75 -14.061,2.06 -15.44,-0.15 -16.61,-3.1 -17.57,-6.82 c -0.93,-3.55 -1.59,-7.36 -2.01,-11.42 -0.021,-0.19 -0.04,-0.38 -0.061,-0.57 -0.41,-4.28 -0.2,-8.68 0.62,-13.23 0.14,-0.79 0.311,-1.57 0.521,-2.33 0.909,-3.62 2.39,-6.9 4.439,-9.86 5.241,-7.72 11.231,-12.47 17.981,-14.26 6.75,-1.8 13.439,-1.38 20.05,1.24 6.62,2.61 12.82,7.23 18.599,13.85 2.981,3.4 5.59,7.1 7.84,11.09 2.12,3.76 3.92,7.77 5.391,12.05 1.38,3.86 0.83,6 -1.651,6.41"
             style="fill:#662d91;fill-opacity:1;fill-rule:nonzero;stroke:none"
             id="path36" />
        </g>
        <g
           id="g38"
           transform="translate(1356.3281,998.8076)">
          <path
             d="m 0,0 c -1.649,4.41 -5.31,7.58 -10.95,9.51 -5.65,1.92 -12.19,2.27 -19.64,1.03 C -38.029,9.3 -45.88,6.06 -54.149,0.83 -62.41,-4.41 -70.13,-11.99 -77.29,-21.91 c -3.87,-5.51 -6.62,-10.74 -8.27,-15.7 -0.4,-1.2 -0.73,-2.38 -0.99,-3.53 -0.82,-3.58 -0.97,-6.89 -0.46,-9.91 0.33,-1.92 0.95,-3.66 1.85,-5.23 0.98,-1.7 2.29,-3.19 3.94,-4.48 3.16,-2.48 7.92,-3.86 14.26,-4.13 5.231,-0.28 10.811,0.2 16.74,1.44 5.92,1.24 11.3,2.41 16.12,3.52 4.821,1.09 8.821,1.58 11.991,1.44 3.159,-0.14 4.889,-1.59 5.17,-4.34 0.269,-3.03 -2.011,-5.72 -6.821,-8.06 -4.83,-2.34 -10.41,-4.2 -16.75,-5.58 -6.34,-1.38 -12.599,-2.14 -18.8,-2.27 -6.2,-0.14 -10.54,0.75 -13.02,2.69 -2.48,1.92 -4.41,1.78 -5.79,-0.42 -1.38,-2.21 -1.65,-5.16 -0.83,-8.88 0.83,-3.72 2.83,-7.38 6,-10.96 3.16,-3.58 7.921,-5.65 14.261,-6.2 6.33,-0.55 12.529,0.55 18.599,3.31 6.061,2.75 11.43,6.26 16.12,10.54 4.68,4.27 8.47,8.95 11.37,14.05 2.89,5.1 4.47,9.72 4.75,13.85 0.27,5.79 -1.24,9.98 -4.549,12.61 -3.301,2.61 -7.441,4.27 -12.401,4.96 -4.96,0.68 -10.4,0.96 -16.33,0.82 -5.92,-0.14 -11.229,-0.07 -15.91,0.21 -4.689,0.27 -8.34,1.3 -10.95,3.1 -2.63,1.79 -3.25,5.17 -1.86,10.13 1.09,4.4 4.47,8.26 10.121,11.57 5.649,3.31 11.439,5.3 17.359,5.99 5.931,0.69 11.23,-0.27 15.92,-2.89 4.68,-2.62 6.75,-7.79 6.2,-15.5 -0.279,-3.04 1.03,-4.13 3.92,-3.31 2.9,0.83 5.931,2.83 9.101,6 3.16,3.16 5.709,7.16 7.649,11.98 C 2.34,-10.27 2.2,-5.24 0,0"
             style="fill:#662d91;fill-opacity:1;fill-rule:nonzero;stroke:none"
             id="path40" />
        </g>
        <g
           id="g42"
           transform="translate(869.3984,852.5679)">
          <path
             d="m 0,0 c -2.57,-2.57 -6.44,-3.97 -9.85,-3.97 -9.69,0 -13.44,6.77 -13.5,13.27 -0.05,6.55 4.039,13.61 13.5,13.61 3.41,0 6.89,-1.18 9.46,-3.7 l 4.93,4.76 c -4.03,3.98 -9.07,5.99 -14.39,5.99 -14.171,0 -20.83,-10.41 -20.78,-20.66 0.06,-10.19 6.22,-20.22 20.78,-20.22 5.65,0 10.86,1.85 14.89,5.83 z"
             style="fill:#ba9bc9;fill-opacity:1;fill-rule:nonzero;stroke:none"
             id="path44" />
        </g>
        <g
           id="g46"
           transform="translate(906.6387,870.8779)">
          <path
             d="m 0,0 c -2.801,0 -5.65,-0.5 -7.78,-3.92 l -0.5,3.2 h -6.33 v -27.61 h 6.83 v 14.56 c 0,5.09 3.3,7 6.889,7 2.241,0 3.531,-0.62 4.931,-1.79 l 3.08,5.93 C 5.6,-1.12 2.859,0 0,0"
             style="fill:#ba9bc9;fill-opacity:1;fill-rule:nonzero;stroke:none"
             id="path48" />
        </g>
        <g
           id="g50"
           transform="translate(937.9482,859.5679)">
          <path
             d="m 0,0 c 1.01,3.59 4.03,5.38 7.73,5.38 3.92,0 6.72,-1.79 7.16,-5.38 z m 7.5,11.43 c -8.96,0 -14.67,-6.05 -14.67,-14.45 0,-8.85 5.66,-14.73 15.18,-14.73 4.2,0 8.96,1.46 11.87,4.48 l -4.37,4.31 c -1.57,-1.62 -4.87,-2.57 -7.39,-2.57 -4.82,0 -7.79,2.46 -8.23,5.88 H 21.45 C 22.51,5.71 16.74,11.43 7.5,11.43"
             style="fill:#ba9bc9;fill-opacity:1;fill-rule:nonzero;stroke:none"
             id="path52" />
        </g>
        <g
           id="g54"
           transform="translate(993.8379,847.9775)">
          <path
             d="m 0,0 c -4.539,0 -8.18,3.14 -8.18,8.4 0,5.26 3.641,8.34 8.18,8.34 C 10.75,16.74 10.75,0 0,0 M 8.391,22.18 8.171,18.37 C 6.601,21.11 3.08,22.85 -0.619,22.85 -8.68,22.9 -15.01,17.92 -15.01,8.4 c 0,-9.69 6.05,-14.73 14.221,-14.67 3.079,0.05 7.39,1.62 8.96,4.87 l 0.34,-4.03 h 6.439 v 27.61 z"
             style="fill:#ba9bc9;fill-opacity:1;fill-rule:nonzero;stroke:none"
             id="path56" />
        </g>
        <g
           id="g58"
           transform="translate(1045.5186,849.2075)">
          <path
             d="m 0,0 c -1,-0.5 -2.24,-0.84 -3.3,-0.84 -2.131,0 -3.58,1.29 -3.58,3.92 v 11.93 h 7.67 v 5.88 h -7.62 v 7.84 L -13.66,28 v -7.11 h -5.151 v -5.88 h 5.151 V 3.08 c 0,-6.89 3.92,-10.3 9.91,-10.08 2.069,0.06 3.7,0.39 5.66,1.18 z"
             style="fill:#ba9bc9;fill-opacity:1;fill-rule:nonzero;stroke:none"
             id="path60" />
        </g>
        <g
           id="g62"
           transform="translate(1066.4688,877.9375)">
          <path
             d="M 0,0 C 0,-5.32 8.06,-5.32 8.06,0 8.06,5.32 0,5.32 0,0 m 0.609,-35.39 h 6.83 v 27.72 h -6.83 z"
             style="fill:#ba9bc9;fill-opacity:1;fill-rule:nonzero;stroke:none"
             id="path64" />
        </g>
        <g
           id="g66"
           transform="translate(1109.418,848.1978)">
          <path
             d="m 0,0 c -4.989,0 -7.51,3.92 -7.51,8.12 0,4.15 2.58,8.18 7.51,8.18 4.591,0 7.5,-4.03 7.5,-8.18 C 7.5,3.92 4.98,0 0,0 m -0.06,22.52 c -8.79,0 -14.28,-6.5 -14.28,-14.4 0,-7.95 5.38,-14.39 14.34,-14.39 8.96,0 14.391,6.44 14.391,14.39 0,7.9 -5.661,14.4 -14.451,14.4"
             style="fill:#ba9bc9;fill-opacity:1;fill-rule:nonzero;stroke:none"
             id="path68" />
        </g>
        <g
           id="g70"
           transform="translate(1159.6484,870.5977)">
          <path
             d="m 0,0 c -3.47,0 -6.271,-1.4 -9.07,-4.14 l -0.451,3.75 h -6.109 v -27.66 h 6.78 v 14.11 c 0,4.2 2.86,7.73 7.06,7.73 4.36,0 6.66,-3.19 6.66,-7.39 v -14.45 h 6.83 v 14.5 C 11.7,-4.87 6.49,0 0,0"
             style="fill:#ba9bc9;fill-opacity:1;fill-rule:nonzero;stroke:none"
             id="path72" />
        </g>
        <g
           id="g74"
           transform="translate(1204.2188,859.5176)">
          <path
             d="m 0,0 c -3.521,0.22 -5.15,1.23 -5.15,3.02 0,1.74 1.79,2.74 5.04,2.74 2.63,0 4.87,-0.61 6.83,-2.46 l 3.809,4.48 c -3.189,2.8 -6.439,3.64 -10.75,3.64 -5.04,0 -11.649,-2.24 -11.649,-8.62 0,-6.28 6.22,-8.18 11.43,-8.57 3.919,-0.23 5.48,-1.01 5.48,-2.91 0,-2.02 -2.4,-3.36 -4.98,-3.31 -3.081,0.06 -7.56,1.68 -9.52,3.87 L -12.82,-13 c 4.03,-4.2 8.4,-4.92 12.769,-4.92 7.891,0 11.87,4.2 11.87,9.07 C 11.819,-1.52 5.21,-0.34 0,0"
             style="fill:#ba9bc9;fill-opacity:1;fill-rule:nonzero;stroke:none"
             id="path76" />
        </g>
        <g
           id="g78"
           transform="translate(880.3467,1258.269)">
          <path
             d="m 0,0 c 3.27,10.13 8.909,19.44 16.25,26.11 3.659,3.34 7.75,6.03 12.18,7.88 4.429,1.85 9.219,2.87 14.37,2.87 2.479,0 5.05,-0.24 7.71,-0.75 6.55,-1.25 12.88,-4.11 18.319,-8.15 5.45,-4.04 9.99,-9.26 13.03,-15.17 C 85.34,6.02 86.8,-0.15 86.8,-5.79 c 0,-6.51 -1.941,-12.4 -5.33,-17.81 -5.09,-8.1 -13.58,-15.02 -23.38,-20.24 -9.801,-5.22 -20.87,-8.75 -30.88,-10.31 -8.44,-1.32 -17.101,-1.98 -25.83,-2.05 -3,10.83 -4.891,21.9 -4.891,32.64 0,8.1 1.071,16.01 3.511,23.56 m 516.069,-117.62 c -20.259,6.46 -41.479,9.66 -62.7,9.66 -23.8,0 -47.599,-4.02 -70.029,-12.01 -16.82,-5.99 -32.301,-14.75 -47.111,-24.41 -14.82,-9.67 -28.979,-20.24 -43.16,-29.92 -10.78,-7.36 -22.259,-13.69 -34.25,-18.86 -23.5,-10.14 -47.309,-14.83 -70.549,-14.83 -36.47,0 -71.56,11.56 -101.691,31.92 -30.13,20.35 -55.269,49.51 -71.779,84.63 -4.151,8.81 -8.141,18.38 -11.321,28.27 8.361,0.15 16.67,0.83 24.81,2.1 7.2,1.13 14.811,3.17 22.211,6.06 11.109,4.36 21.77,10.62 29.819,18.82 4.021,4.1 7.391,8.7 9.76,13.78 2.37,5.09 3.721,10.67 3.721,16.62 0,6.87 -1.8,14.18 -5.721,21.78 -3.569,6.94 -8.819,12.94 -15.069,17.59 -6.26,4.64 -13.521,7.94 -21.181,9.41 -3.079,0.59 -6.1,0.87 -9.029,0.87 -6.09,0 -11.83,-1.22 -17.071,-3.41 C 17.859,37.16 11.109,31.73 5.659,25.08 0.21,18.42 -3.95,10.52 -6.66,2.15 c -2.7,-8.34 -3.851,-17 -3.851,-25.71 0.011,-10.91 1.8,-21.9 4.62,-32.57 -21.45,0.58 -43.12,4.55 -63,10.71 -5.769,1.79 -11.479,3.91 -17.099,6.35 -1.42,0.61 -2.83,1.25 -4.231,1.91 -3.34,1.54 -6.649,3.21 -9.899,4.99 -12.221,6.64 -23.771,14.78 -34.181,24.15 -18.979,17.07 -34.149,38.19 -42.8,61.73 -0.67,1.81 -2.679,2.74 -4.49,2.08 -1.819,-0.67 -2.75,-2.68 -2.08,-4.5 9.101,-24.75 24.96,-46.77 44.681,-64.51 11.559,-10.4 24.45,-19.33 38.099,-26.49 0.641,-0.33 1.281,-0.66 1.92,-0.99 3.491,-1.78 7.04,-3.44 10.62,-4.98 0.39,-0.17 0.784,-0.323 1.17,-0.49 12.879,-5.55 28.79,-9.48 28.79,-9.48 17.54,-4.47 36.08,-7.22 54.521,-7.53 3.42,-11.02 7.8,-21.6 12.33,-31.24 17.05,-36.25 43.01,-66.37 74.199,-87.45 31.2,-21.08 67.651,-33.12 105.611,-33.12 24.179,0 48.959,4.89 73.32,15.4 12.399,5.35 24.279,11.9 35.43,19.51 14.339,9.8 28.459,20.33 43.03,29.83 14.569,9.51 29.58,17.97 45.63,23.68 21.66,7.72 44.679,11.62 67.689,11.61 20.521,0.01 41.03,-3.09 60.57,-9.33 1.84,-0.59 3.811,0.43 4.401,2.27 0.58,1.84 -0.431,3.81 -2.271,4.4"
             style="fill:#ba9bc9;fill-opacity:1;fill-rule:nonzero;stroke:none"
             id="path80" />
        </g>
        <g
           id="g82"
           transform="translate(774.6699,864.5601)">
          <path
             d="m 0,0 c -2.938,-2.57 -5.938,-4.906 -8.996,-7.004 l -3.049,-15.957 c 2.436,1.238 4.859,2.535 7.283,3.899 C 6.017,-12.979 15.934,-6.088 24.969,1.6 24.838,10.406 14.017,14.463 8.086,7.953 5.643,5.271 2.943,2.575 0,0 m 125.768,224.667 c -3.183,5.064 -8.827,9.291 -16.96,12.68 -9.757,4.157 -20.29,5.956 -31.591,5.388 -11.3,-0.567 -23.053,-2.901 -35.249,-6.981 -1.625,-0.542 -3.258,-1.123 -4.892,-1.724 l -4.373,-22.858 c 8.217,2.164 15.919,3.49 23.106,3.977 10.756,0.971 19.598,-0.11 26.506,-3.244 6.917,-3.133 10.941,-6.846 12.088,-11.13 1.139,-4.294 -1.36,-8.445 -7.498,-12.436 -6.137,-4 -17.009,-6.516 -32.612,-7.548 -8.113,-0.589 -17.169,-0.244 -27.197,1.055 l -2.069,-10.841 c 1.851,-0.236 3.721,-0.453 5.591,-0.67 14.295,-1.675 27.293,-1.61 38.977,0.175 11.692,1.785 21.747,4.622 30.174,8.529 8.425,3.887 15.16,8.502 20.203,13.825 5.033,5.333 8.052,10.685 9.057,16.095 0.987,5.4 -0.097,10.633 -3.261,15.708 m -222.969,-99.04 c -9.443,0.662 -18.091,3.232 -25.966,7.69 -7.886,4.468 -14.024,9.831 -18.418,16.09 -4.402,6.268 -6.727,12.763 -6.953,19.494 -0.236,6.731 2.703,12.834 8.819,18.31 4.514,4.113 10.066,6.746 16.646,7.928 6.58,1.163 13.918,1.349 22.012,0.521 8.096,-0.828 17.003,-2.368 26.733,-4.649 9.729,-2.28 20.126,-4.697 31.218,-7.221 -20.492,-17.544 -38.512,-36.928 -54.091,-58.163 m 95.161,72.081 1.878,17.778 c -3.478,-2.143 -6.943,-4.393 -10.399,-6.732 -7.064,-4.776 -14.054,-9.952 -20.98,-15.498 -11.346,2.52 -22.691,5.05 -34.048,7.58 -11.346,2.52 -22.016,4.376 -31.994,5.587 -9.987,1.192 -19.083,1.595 -27.288,1.21 -8.214,-0.395 -15.118,-2.11 -20.733,-5.154 -12.551,-7.193 -20.762,-16.404 -24.642,-27.633 -3.871,-11.239 -4.309,-22.622 -1.314,-34.16 3.005,-11.539 8.949,-22.222 17.852,-32.06 8.893,-9.828 19.839,-17.075 32.839,-21.731 -5.759,-11.13 -10.18,-22.171 -13.243,-33.124 -3.074,-10.954 -4.602,-21.347 -4.593,-31.179 0.009,-9.833 1.825,-19.023 5.461,-27.59 3.625,-8.567 9.385,-16.018 17.298,-22.371 8.453,-7.148 18.883,-11.235 31.292,-12.264 12.399,-1.029 25.448,0.249 39.128,3.813 3.134,0.819 6.268,1.744 9.4,2.778 3.366,1.105 6.72,2.337 10.071,3.697 l 1.476,13.949 c -2.322,-0.933 -4.686,-1.75 -7.07,-2.44 -0.983,-0.288 -1.976,-0.547 -2.959,-0.777 -10.266,-2.458 -20.455,-2.159 -30.578,0.888 -11.093,3.325 -21.042,11.134 -29.834,23.388 -7.984,11.201 -12.269,23.384 -12.865,36.58 -0.595,13.186 1.552,26.687 6.469,40.492 0.815,-0.252 2.029,-0.371 3.642,-0.347 9.701,-0.404 17.823,0.928 24.385,3.996 6.552,3.058 11.814,6.841 15.793,11.346 3.971,4.497 6.79,9.455 8.46,14.865 1.67,5.41 2.479,10.201 2.417,14.384 -0.061,4.172 -0.851,7.386 -2.361,9.661 -1.52,2.264 -3.342,2.57 -5.468,0.925 -7.742,-5.235 -15.773,-8.716 -24.085,-10.452 5.532,7.891 11.549,15.516 18.037,22.894 6.489,7.368 13.325,14.33 20.5,20.906 l 11.574,9.867 c 4.794,-1.063 9.687,-2.095 14.677,-3.107 3.127,-0.637 6.284,-1.265 9.49,-1.892 l 1.149,10.827 0.052,0.509 c -4.128,0.848 -2.324,1.783 -6.58,2.757 4.6,2.873 3.164,5.471 7.694,7.834"
             style="fill:#662d91;fill-opacity:1;fill-rule:nonzero;stroke:none"
             id="path84" />
        </g>
        <g
           id="g86"
           transform="translate(809.3857,1206.1587)">
          <path
             d="M 0,0 C -0.46,0.14 -0.93,0.29 -1.39,0.45 -1.789,-1.1 -2.189,-2.63 -2.739,-3.99 -2.84,-4.54 -3.05,-5.03 -3.22,-5.49 -3.289,-5.7 -3.399,-5.95 -3.47,-6.16 c -0.229,-0.67 -0.509,-1.28 -0.729,-1.87 -2.25,-5.08 -4.861,-8.1 -7.28,-7.73 -2.42,0.36 -4.041,4.05 -4.72,9.62 -0.021,0.12 -0.051,0.34 -0.071,0.56 -0.08,0.57 -0.11,1.17 -0.179,1.74 0.019,0.64 -0.051,1.29 -0.03,1.93 -0.071,1.52 -0.05,3.11 0.03,4.82 0.059,0.99 0.13,2 0.229,3.03 0.08,0.89 0.17,1.79 0.29,2.7 v 0.01 c 0,0.01 0.01,0.02 0,0.03 0.08,0.56 0.16,1.12 0.241,1.69 0.099,0.72 0.21,1.43 0.339,2.13 -1.309,0.8 -2.62,1.61 -3.91,2.45 -3.309,2.13 -6.55,4.38 -9.719,6.73 l -0.18,-1.74 -0.011,-0.05 -0.199,-2.08 -0.03,-0.34 v -0.04 l -0.521,-4.97 -0.01,-0.06 -1.67,-15.31 -13.679,-129.93 -2.351,-22.29 -0.93,-8.8 -4.089,-38.49 -1.51,-14.44 -5.04,-47.37 -10.12,-95.98 -1.521,-14.43 -15.38,-145.79 48.391,253.26 8.939,46.83 2.741,14.28 8.929,46.73 28.681,150.03 0.739,3.83 0.37,1.93 C 8.311,-2.46 4.12,-1.28 0,0 M 1.681,66.2 C -11.25,68.73 -23.72,60.24 -26.159,47.3 l -0.311,-1.91 -1.67,-15.75 h 0.01 v -0.01 c 4.641,-3.6 9.441,-6.98 14.401,-10.09 v 0.01 c 0.269,0.97 0.549,1.9 0.86,2.82 0.279,0.78 0.529,1.54 0.769,2.21 0.271,0.61 0.55,1.23 0.771,1.81 2.25,5.08 4.899,8.06 7.229,7.7 2.42,-0.36 4.05,-4.04 4.691,-9.57 C 0.66,24.35 0.641,24.17 0.66,23.96 0.811,22.82 0.9,21.56 0.9,20.23 0.94,18.85 0.94,17.35 0.87,15.81 0.851,15.63 0.841,15.55 0.83,15.38 0.78,14.1 0.69,12.79 0.54,11.46 5.03,9.18 9.62,7.12 14.261,5.26 l 1.649,8.59 4.67,24.51 C 23.021,51.3 14.61,63.77 1.681,66.2"
             style="fill:#662d91;fill-opacity:1;fill-rule:nonzero;stroke:none"
             id="path88" />
        </g>
        <g
           id="g90"
           transform="translate(781.5312,1216.9438)">
          <path
             d="M 0,0 -1.561,6.713 -0.278,18.852 14.131,8.752 11.932,-2.123 8.716,-7.017 Z"
             style="fill:#662d91;fill-opacity:1;fill-rule:nonzero;stroke:none"
             id="path92" />
        </g>
      </g>
    </g>
  </g>
</svg>
